# xmcd
#
# Track frame offsets: 
#        150
#        12344
#        25872
#        34809
#        46937
#        57684
#        70459
#        82671
#        93721
#        104598
#        115035
#        127674
#        141103
#        153640
#        163770
#        176065
#        184029
#        196403
#
# Disc length: 2746 seconds
#
# Revision: 2
# Processed by: cddbd v1.5.2PL0 Copyright (c) Steve Scherf et al.
# Submitted via: ExactAudioCopyFreeDBPlugin 1.0
#
DISCID=f60ab812
DTITLE=Various Artist - Boddie Recording Company, Cleveland, Ohio [Nu
DTITLE=mero Group 035]
DYEAR=2011
DGENRE=Rhythm and Blues
TTITLE0=A.C. Jones and The Atomic Aces - Oh Baby (I Love You)
TTITLE1=Harvey Hall - Tell Me About It
TTITLE2=The Headlines - He's Looking for a Love
TTITLE3=J.C. Akins - I've Got to Find a Way (To Get to Your Heart)
TTITLE4=Modern Detergents - Monkey Hips and Yice
TTITLE5=A.C. Jones and The Atomic Aces - Give Me Your Love
TTITLE6=Harvey and The Phenomenals - Darlene (instrumental)
TTITLE7=Little Anthony Mitchell and The Modern Detergents - Don't Make M
TTITLE7=e Blue
TTITLE8=Penny North - Satisfied
TTITLE9=J.C. Akins and The Dukes - You Upset My Very Soul
TTITLE10=Harvey and The Phenomenals - All in Your Eyes
TTITLE11=J.C. Akins - I Love You
TTITLE12=A.C. Jones and The Soulettes - Hole in Your Soul
TTITLE13=Penny North - Thought I Had a Good Thing
TTITLE14=Harvey and The Phenomenals - Darlene (vocal)
TTITLE15=The Headlines - Baby
TTITLE16=A.C. Jones and The Atomic Aces - Give Me Your Love (instrumenta
TTITLE16=l)
TTITLE17=The Headlines - He's Looking For A Love (demo)
EXTD=
EXTT0=
EXTT1=
EXTT2=
EXTT3=
EXTT4=
EXTT5=
EXTT6=
EXTT7=
EXTT8=
EXTT9=
EXTT10=
EXTT11=
EXTT12=
EXTT13=
EXTT14=
EXTT15=
EXTT16=
EXTT17=
PLAYORDER=
